<svg width="82" height="64" viewBox="0 0 502 364" fill="none" xmlns="http://www.w3.org/2000/svg">
<path fill-rule="evenodd" clip-rule="evenodd" d="M114.003 1.294L111.503 2.559L111.248 101.548L110.993 200.538L103.248 203.279C98.9884 204.786 95.1654 206.015 94.7534 206.01C94.3414 206.004 94.0034 198.382 94.0034 189.071C94.0034 175.015 93.7364 171.876 92.4324 170.571C91.0514 169.191 85.5474 169 47.0874 169C5.94941 169 3.21341 169.11 1.65841 170.829C0.143408 172.503 0.00340805 180.565 0.00340805 266.257C0.00340805 368.046 -0.319592 362.139 5.32341 363.537C6.52241 363.835 26.3274 363.948 49.3344 363.789C89.4104 363.512 91.2254 363.419 92.5844 361.559C93.6344 360.123 94.0034 356.295 94.0034 346.851V334.085L100.753 332.107C104.465 331.019 111.553 328.932 116.503 327.469C123.313 325.456 128.554 324.68 138.04 324.279C155.837 323.528 161.702 325.186 187.996 338.403C211.012 349.971 216.74 351.989 235.003 354.964C256.418 358.452 275.763 357.473 291.725 352.094C306.807 347.012 462.77 281.679 466.003 279.089C478.8 268.837 477.588 246.829 463.773 238.591L459.872 236.265L465.188 233.263C496.589 215.532 510.14 176.368 496.494 142.785C488.806 123.865 471.666 108.044 451.503 101.255C444.278 98.823 442.075 98.559 428.753 98.531L414.003 98.5V51.705V4.909L411.548 2.455L409.094 0L262.798 0.0149994C146.86 0.0259994 115.984 0.291999 114.003 1.294ZM210.003 22V32H166.503H123.003V22V12H166.503H210.003V22ZM401.789 22.25L402.075 32H358.039H314.003V21.989V11.979L357.753 12.239L401.503 12.5L401.789 22.25ZM302.003 42.969V72.938L283.113 60.469C272.723 53.611 263.357 48 262.299 48C261.241 48 252.163 53.4 242.127 60C232.091 66.6 223.682 72 223.441 72C223.2 72 223.003 58.725 223.003 42.5V13H262.503H302.003V42.969ZM210.018 64.25C210.034 86.965 210.548 89.304 215.632 89.803C218.161 90.051 222.429 87.664 239.408 76.502C250.789 69.021 260.696 62.671 261.423 62.392C262.151 62.113 272.402 68.211 284.205 75.942C296.359 83.905 306.679 90 308.005 90C309.292 90 311.168 89.255 312.174 88.345C313.837 86.84 314.003 84.753 314.003 65.335V43.979L357.753 44.239L401.503 44.5L401.768 73.688L402.033 102.875L394.768 106.669C389.746 109.292 384.847 113.093 378.902 118.982C369.369 128.424 364.293 136.515 360.175 148.833C357.917 155.586 357.609 158.168 357.591 170.5C357.573 183.272 357.816 185.202 360.361 192.5C367.002 211.547 378.528 225.087 396.086 234.467L402.271 237.772L396.387 238.401C390.263 239.056 317.899 245 316.055 245C315.423 245 315.003 242.304 315.002 238.25C315.002 232.908 314.409 230.249 312.158 225.5C309.539 219.972 303.81 213.573 299.337 211.179C298.324 210.637 279.526 203.617 257.565 195.579C235.603 187.541 217.418 180.748 217.152 180.483C216.887 180.217 245.063 180 279.765 180C335.791 180 343.036 179.824 344.432 178.429C345.805 177.055 346.003 172.082 346.003 139C346.003 105.918 345.805 100.945 344.432 99.571C343.029 98.169 334.175 98 261.988 98H181.116L179.539 100.25C178.167 102.206 177.97 107.384 178.029 139.926L178.096 177.351L172.8 179.054C169.887 179.991 157.661 184.187 145.632 188.379C133.602 192.57 123.59 196 123.382 196C123.173 196 123.003 161.8 123.003 120V44H166.503H210.003L210.018 64.25ZM334.003 139V168H262.003H190.003V139V110H262.003H334.003V139ZM444.492 111.997C469.789 118.467 487.7 140.264 489.647 166.949C491.643 194.293 472.963 220.36 445.46 228.611C437.39 231.032 421.627 231.031 413.503 228.609C387.303 220.799 369.038 196.929 369.038 170.5C369.038 142.214 389.948 116.553 417.503 111.022C424.986 109.52 436.422 109.933 444.492 111.997ZM222.783 114.964C216.839 116.101 209.892 121.009 206.529 126.448C203.851 130.781 203.503 132.223 203.503 139C203.503 145.777 203.851 147.219 206.529 151.552C210.103 157.331 217.07 162.024 223.535 163.005C229.529 163.914 232.41 162.412 232.821 158.162C233.236 153.873 231.817 152.313 226.717 151.452C221.533 150.576 218.329 148.532 216.452 144.901C212.788 137.816 216.371 129.441 224.033 127.182C232.507 124.682 233.003 124.32 233.003 120.644C233.003 115.534 229.624 113.656 222.783 114.964ZM255.003 115.101C249.347 116.203 243.438 120.305 239.561 125.821C237.097 129.327 236.494 131.308 236.176 136.952C235.706 145.26 236.957 149.418 241.535 154.767C251.08 165.918 268.338 166.165 278.132 155.291C293.841 137.85 278.155 110.592 255.003 115.101ZM293.549 116.143L291.003 118.145V138.918C291.003 158.453 291.123 159.798 293.012 161.509C297.389 165.469 309.005 162.178 315.084 155.255C319.43 150.305 321.203 145.596 321.203 139C321.203 129.462 315.993 121.036 307.709 117.176C301.141 114.115 296.552 113.781 293.549 116.143ZM425.076 118.635C423.936 120.084 423.003 122.469 423.003 123.934C423.003 126.091 422.309 126.849 419.36 127.915C414.129 129.807 407.624 136.729 405.659 142.496C403.591 148.567 403.561 153.348 405.557 159.205C408.888 168.981 417.186 175.013 429.297 176.462C434.057 177.031 435.696 177.759 438.477 180.541C445.538 187.601 442.549 199.258 432.941 202.137C427.868 203.657 423.19 201.957 418.71 196.967C413.327 190.97 407.003 192.119 407.003 199.094C407.003 202.846 413.359 209.955 418.981 212.49C422.195 213.94 423.003 214.831 423.003 216.929C423.003 221.124 425.62 224 429.437 224C433.363 224 434.895 222.443 435.671 217.661C436.116 214.918 436.928 213.859 439.365 212.85C443.759 211.03 449.797 205.324 452.094 200.821C460.511 184.322 447.553 164.034 428.571 163.993C425.254 163.986 420.685 161.427 418.576 158.394C414.323 152.279 416.823 142.737 423.507 139.565C429.444 136.748 434.308 137.891 439.925 143.423C444.962 148.385 446.386 148.821 449.78 146.443C454.877 142.874 450.108 133.109 441.194 128.863C436.861 126.799 436.155 126.032 435.615 122.805C434.979 119.005 431.993 116 428.853 116C427.915 116 426.215 117.186 425.076 118.635ZM267.003 128.913C270.626 131.4 273.312 137.317 272.499 141.02C270.924 148.191 263.484 152.8 256.567 150.89C248.358 148.623 245.049 137.665 250.586 131.084C254.826 126.044 261.533 125.157 267.003 128.913ZM308.924 135.676C310.113 139.983 308.73 144.969 305.505 147.999L303.003 150.349V139V127.651L305.505 130.001C306.88 131.294 308.419 133.847 308.924 135.676ZM41.0034 230.427V279.855L43.6384 281.927C46.9324 284.518 48.4704 284.533 51.0034 282C52.9494 280.054 53.0034 278.667 53.0034 230.5V181H67.5034H82.0034V266.5V352H47.0034H12.0034V266.5V181H26.5034H41.0034V230.427ZM248.411 205.022C276.026 215.09 294.431 222.33 296.205 223.823C302.085 228.771 304.553 237.737 301.947 244.685C298.913 252.774 291.291 259 284.421 259C282.799 259 259.878 255.18 233.487 250.511C207.096 245.843 184.501 242.018 183.276 242.011C178.101 241.985 176.479 250.946 181.281 253.034C182.503 253.566 205.328 257.861 232.003 262.578C284.02 271.778 287.504 272.084 296.266 268.208C298.76 267.105 302.707 264.296 305.035 261.968L309.27 257.733L380.716 251.858C448.154 246.311 452.353 246.072 455.567 247.597C462.681 250.973 465.186 260.457 460.719 267.102C458.115 270.975 467.744 266.744 360.503 311.141C322.003 327.079 287.353 341.036 283.503 342.156C268.688 346.467 240.95 345.457 220.785 339.874C216.78 338.765 203.828 333.04 192.003 327.151C164.873 313.641 160.706 312.474 140.003 312.578C124.868 312.655 124.167 312.755 110.238 316.828C102.392 319.123 95.5294 321 94.9884 321C94.3544 321 94.0034 302.833 94.0034 270.092V219.184L99.7534 217.205C102.916 216.116 121.253 209.717 140.503 202.983C185.322 187.306 182.729 188.015 194.003 188.36L203.503 188.65L248.411 205.022Z" fill="black"/>
<path d="M248.411 205.022C276.026 215.09 294.431 222.33 296.205 223.823C302.085 228.771 304.553 237.737 301.947 244.685C298.913 252.774 291.291 259 284.421 259C282.799 259 259.878 255.18 233.487 250.511C207.096 245.843 184.501 242.018 183.276 242.011C178.101 241.985 176.479 250.946 181.281 253.034C182.503 253.566 205.328 257.861 232.003 262.578C284.02 271.778 287.504 272.084 296.266 268.208C298.76 267.105 302.707 264.296 305.035 261.968L309.27 257.733L380.716 251.858C448.154 246.311 452.353 246.072 455.567 247.597C462.681 250.973 465.186 260.457 460.719 267.102C458.115 270.975 467.744 266.744 360.503 311.141C322.003 327.079 287.353 341.036 283.503 342.156C268.688 346.467 240.95 345.457 220.785 339.874C216.78 338.765 203.828 333.04 192.003 327.151C164.873 313.641 160.706 312.474 140.003 312.578C124.868 312.655 124.167 312.755 110.238 316.828C102.392 319.123 95.5294 321 94.9884 321C94.3544 321 94.0034 302.833 94.0034 270.092V219.184L99.7534 217.205C102.916 216.116 121.253 209.717 140.503 202.983C185.322 187.306 182.729 188.015 194.003 188.36L203.503 188.65L248.411 205.022Z" fill="#F0D0B4"/>
<path d="M41.0034 230.427V279.855L43.6384 281.927C46.9324 284.518 48.4704 284.533 51.0034 282C52.9494 280.054 53.0034 278.667 53.0034 230.5V181H67.5034H82.0034V266.5V352H47.0034H12.0034V266.5V181H26.5034H41.0034V230.427Z" fill="#FCD770"/>
<path d="M210.018 64.25C210.034 86.965 210.548 89.304 215.632 89.803C218.161 90.051 222.429 87.664 239.408 76.502C250.789 69.021 260.696 62.671 261.423 62.392C262.151 62.113 272.402 68.211 284.205 75.942C296.359 83.905 306.679 90 308.005 90C309.292 90 311.168 89.255 312.174 88.345C313.837 86.84 314.003 84.753 314.003 65.335V43.979L357.753 44.239L401.503 44.5L401.768 73.688L402.033 102.875L394.768 106.669C389.746 109.292 384.847 113.093 378.902 118.982C369.369 128.424 364.293 136.515 360.175 148.833C357.917 155.586 357.609 158.168 357.591 170.5C357.573 183.272 357.816 185.202 360.361 192.5C367.002 211.547 378.528 225.087 396.086 234.467L402.271 237.772L396.387 238.401C390.263 239.056 317.899 245 316.055 245C315.423 245 315.003 242.304 315.002 238.25C315.002 232.908 314.409 230.249 312.158 225.5C309.539 219.972 303.81 213.573 299.337 211.179C298.324 210.637 279.526 203.617 257.565 195.579C235.603 187.541 217.418 180.748 217.152 180.483C216.887 180.217 245.063 180 279.765 180C335.791 180 343.036 179.824 344.432 178.429C345.805 177.055 346.003 172.082 346.003 139C346.003 105.918 345.805 100.945 344.432 99.571C343.029 98.169 334.175 98 261.988 98H181.116L179.539 100.25C178.167 102.206 177.97 107.384 178.029 139.926L178.096 177.351L172.8 179.054C169.887 179.991 157.661 184.187 145.632 188.379C133.602 192.57 123.59 196 123.382 196C123.173 196 123.003 161.8 123.003 120V44H166.503H210.003L210.018 64.25Z" fill="#FCD770"/>
<path d="M210.003 22V32H166.503H123.003V22V12H166.503H210.003V22Z" fill="#FCD770"/>
<path d="M401.789 22.25L402.075 32H358.039H314.003V21.989V11.979L357.753 12.239L401.503 12.5L401.789 22.25Z" fill="#FCD770"/>
<path fill-rule="evenodd" clip-rule="evenodd" d="M334.003 139V168H262.003H190.003V139V110H262.003H334.003V139ZM206.529 126.448C209.892 121.009 216.839 116.101 222.783 114.964C229.624 113.656 233.003 115.534 233.003 120.644C233.003 124.32 232.507 124.682 224.033 127.182C216.371 129.441 212.788 137.816 216.452 144.901C218.329 148.532 221.533 150.576 226.717 151.452C231.817 152.313 233.236 153.873 232.821 158.162C232.41 162.412 229.529 163.914 223.535 163.005C217.07 162.024 210.103 157.331 206.529 151.552C203.851 147.219 203.503 145.777 203.503 139C203.503 132.223 203.851 130.781 206.529 126.448ZM239.561 125.821C243.438 120.305 249.347 116.203 255.003 115.101C278.155 110.592 293.841 137.85 278.132 155.291C268.338 166.165 251.08 165.918 241.535 154.767C236.957 149.418 235.706 145.26 236.176 136.952C236.494 131.308 237.097 129.327 239.561 125.821ZM291.003 118.145L293.549 116.143C296.552 113.781 301.141 114.115 307.709 117.176C315.993 121.036 321.203 129.462 321.203 139C321.203 145.596 319.43 150.305 315.084 155.255C309.005 162.178 297.389 165.469 293.012 161.509C291.123 159.798 291.003 158.453 291.003 138.918V118.145Z" fill="white"/>
<path d="M267.003 128.913C270.626 131.4 273.312 137.317 272.499 141.02C270.924 148.191 263.484 152.8 256.567 150.89C248.358 148.623 245.049 137.665 250.586 131.084C254.826 126.044 261.533 125.157 267.003 128.913Z" fill="#F7F4F0"/>
<path d="M308.924 135.676C310.113 139.983 308.73 144.969 305.505 147.999L303.003 150.349V139V127.651L305.505 130.001C306.88 131.294 308.419 133.847 308.924 135.676Z" fill="#FBF7F0"/>
<path fill-rule="evenodd" clip-rule="evenodd" d="M444.492 111.997C469.789 118.467 487.7 140.264 489.647 166.949C491.643 194.293 472.963 220.36 445.46 228.611C437.39 231.032 421.627 231.031 413.503 228.609C387.303 220.799 369.038 196.929 369.038 170.5C369.038 142.214 389.948 116.553 417.503 111.022C424.986 109.52 436.422 109.933 444.492 111.997ZM423.003 123.934C423.003 122.469 423.936 120.084 425.076 118.635C426.215 117.186 427.915 116 428.853 116C431.993 116 434.979 119.005 435.615 122.805C436.155 126.032 436.861 126.799 441.194 128.863C450.108 133.109 454.877 142.874 449.78 146.443C446.386 148.821 444.962 148.385 439.925 143.423C434.308 137.891 429.444 136.748 423.507 139.565C416.823 142.737 414.323 152.279 418.576 158.394C420.685 161.427 425.254 163.986 428.571 163.993C447.553 164.034 460.511 184.322 452.094 200.821C449.797 205.324 443.759 211.03 439.365 212.85C436.928 213.859 436.116 214.918 435.671 217.661C434.895 222.443 433.363 224 429.437 224C425.62 224 423.003 221.124 423.003 216.929C423.003 214.831 422.195 213.94 418.981 212.49C413.359 209.955 407.003 202.846 407.003 199.094C407.003 192.119 413.327 190.97 418.71 196.967C423.19 201.957 427.868 203.657 432.941 202.137C442.549 199.258 445.538 187.601 438.477 180.541C435.696 177.759 434.057 177.031 429.297 176.462C417.186 175.013 408.888 168.981 405.557 159.205C403.561 153.348 403.591 148.567 405.659 142.496C407.624 136.729 414.129 129.807 419.36 127.915C422.309 126.849 423.003 126.091 423.003 123.934Z" fill="#306A26"/>
<path d="M302.003 42.969V72.938L283.113 60.469C272.723 53.611 263.357 48 262.299 48C261.241 48 252.163 53.4 242.127 60C232.091 66.6 223.682 72 223.441 72C223.2 72 223.003 58.725 223.003 42.5V13H262.503H302.003V42.969Z" fill="#FC6E51"/>
</svg>
