<svg width="485" height="216" viewBox="0 0 485 216" fill="none" xmlns="http://www.w3.org/2000/svg">
<path d="M138.24 0H362.496L358.4 44.032L345.088 178.176L344.064 181.248H220.16L217.088 168.96L210.944 159.744L206.848 154.624L194.56 148.48L189.44 147.456H179.2L165.888 151.552L159.744 155.648L150.528 164.864L143.36 177.152L141.312 181.248H121.856L122.88 150.528L137.216 7.168L138.24 0Z" fill="#2D373F"/>
<path d="M367.616 51.2H421.888V62.464L418.816 98.304L420.864 101.376L484.352 102.4L483.328 119.808L477.184 181.248H455.68L452.608 168.96L446.464 159.744L438.272 152.576L428.032 148.48L422.912 147.456H414.72L401.408 151.552L390.144 158.72L381.952 168.96L377.856 176.128L375.808 181.248H354.304L358.4 137.216L366.592 54.272L367.616 51.2ZM418.816 117.76L416.768 119.808V124.928L420.864 128H428.032L432.128 123.904L431.104 118.784L430.08 117.76H418.816Z" fill="#ED2023"/>
<path d="M433.152 51.2H467.968L472.064 60.416L482.304 90.112V92.16H429.056L430.08 73.728L432.128 52.224L433.152 51.2Z" fill="#ED2023"/>
<path d="M413.696 156.672H423.936L432.128 159.744L440.32 166.912L444.416 175.104L445.44 183.296L443.392 193.536L437.248 203.776L429.056 210.944L421.888 214.016L416.768 215.04H407.552L397.312 210.944L390.144 203.776L387.072 196.608L386.048 187.392L388.096 178.176L393.216 168.96L402.432 160.768L413.696 156.672ZM413.696 168.96L405.504 173.056L399.36 180.224L398.336 188.416L401.408 195.584L406.528 200.704L415.744 202.752L422.912 199.68L429.056 194.56L432.128 186.368L431.104 178.176L428.032 173.056L418.816 168.96H413.696Z" fill="#2D3840"/>
<path d="M178.176 156.672H190.464L199.68 160.768L205.824 167.936L208.896 175.104V190.464L202.752 203.776L194.56 210.944L187.392 214.016L182.272 215.04H173.056L164.864 211.968L158.72 207.872L153.6 199.68L151.552 191.488L152.576 180.224L157.696 169.984L166.912 160.768L178.176 156.672ZM179.2 168.96L168.96 174.08V176.128L165.888 177.152L163.84 182.272V190.464L166.912 196.608L172.032 200.704L181.248 202.752L189.44 199.68L196.608 191.488L197.632 188.416V180.224L194.56 175.104L189.44 171.008L184.32 168.96H179.2Z" fill="#2D373F"/>
<path d="M14.336 71.68H100.352L104.448 76.8L103.424 83.968L100.352 86.016H13.312L10.24 81.92V75.776L14.336 71.68Z" fill="#EC2023"/>
<path d="M23.552 20.48H110.592L113.664 23.552V30.72L109.568 34.816H24.576L20.48 31.744L19.456 26.624L21.504 21.504L23.552 20.48Z" fill="#EC2023"/>
<path d="M3.072 123.904H91.136L94.208 126.976V133.12L92.16 136.192L88.064 137.216H6.144L1.024 134.144L0 129.024L3.072 123.904Z" fill="#ED2023"/>
<path d="M179.2 179.2L186.368 180.224L187.392 181.248V187.392L183.296 191.488H175.104L174.08 189.44V182.272L179.2 179.2Z" fill="#2C373F"/>
<path d="M414.72 179.2L420.864 180.224L421.888 186.368L417.792 191.488H410.624L408.576 188.416L409.6 182.272L410.624 180.224L414.72 179.2Z" fill="#2D373F"/>
</svg>
