<svg width="313" height="228" viewBox="0 0 313 228" fill="none" xmlns="http://www.w3.org/2000/svg">
<path d="M153 111H291L296 115L300 121V123H302L311 135V137H313V159H295V167L291 171V182L295 186V223L293 227L291 228H153L150 224V204H139L136 202V199H124L123 203L121 204H110V216L107 219L101 220L95 218V216L91 215L80 209L61 198L53 193L52 191V183L58 178L67 173L81 165L98 155H107L110 158V171H150V159H127L123 154L124 148L130 139H132L134 134L145 120L148 115H150L151 112L153 111Z" fill="#030202"/>
<path d="M0 0H133L136 3V26H194V16L199 11L208 12L221 20L230 25L247 35L252 39L253 41V47L248 52H245V54L237 58L213 72L203 77L196 75L194 71V61H136V77L133 79L132 90L136 92V114L131 117H0V0Z" fill="#030201"/>
<path d="M49 10H66L67 35L69 37H106L108 36L109 10H126L127 75L132 78V90L128 92L127 107H49V10Z" fill="#FDD1A3"/>
<path d="M2 10H39V107H2V10Z" fill="#F5A86B"/>
<path d="M236 131H238V218H160V203L208 202L211 200V175L210 173L207 172L160 171V158L218 157L220 153L230 140L236 131Z" fill="#F5CA9D"/>
<path d="M247 131L252 136L264 152L268 157L284 158L285 167L286 170L290 171V182L286 184L285 186L284 218H247V131Z" fill="#F4A76B"/>
<path d="M157 121H232L230 125L212 149H137L139 145L149 132L157 121Z" fill="#C3E1FE"/>
<path d="M98 167H100L101 177L104 180L202 181V193L140 194L138 195L136 199H124L121 195H103L101 197L100 207L94 205L70 191L65 188V186L90 172L98 167Z" fill="#FB626D"/>
<path d="M2 10H39V11H19V106H39V107H2V10Z" fill="#E59856"/>
<path d="M205 24L210 26L226 35L239 43L235 47L207 63H205L203 53L200 51L136 50V37L200 36L204 32L205 24Z" fill="#4EBF22"/>
<path d="M49 10H66V34H65V11H62V106H126V94H127V107H49V10Z" fill="#F5B682"/>
<path d="M247 131L252 136L262 149L261 217H284V218H247V131Z" fill="#E59856"/>
<path d="M252 121H287L298 135L307 147V149H273L261 134L254 125V123H252V121Z" fill="#C1DFFB"/>
<path d="M157 121H232L231 123H178L164 141L159 148H212V149H137L139 145L149 132L157 121Z" fill="#A7CAEA"/>
<path d="M252 121H287V122L269 123L280 137L287 147H307V149H273L261 134L254 125V123H252V121Z" fill="#A9CEEF"/>
<path d="M76 10H100V28H76V10Z" fill="#EF4653"/>
<path d="M74 181L88 189L98 195L101 197L100 207L94 205L70 191L65 188V186L74 181Z" fill="#F34452"/>
<path d="M136 37H200V38H151V49H199V50H136V37Z" fill="#46A81F"/>
<path d="M160 158H215V159H176V171H160V158Z" fill="#E2A979"/>
<path d="M161 204H177V217H161V204Z" fill="#FEBD86"/>
<path d="M87 11H99V28H87V11Z" fill="#FD636E"/>
</svg>
